<svg id="Layer_1" enable-background="new 0 0 512 512" height="512" viewBox="0 0 512 512" width="512" xmlns="http://www.w3.org/2000/svg"><path d="m509.657 415.787-65.665-65.665v-216.515c0-4.418-3.582-8-8-8h-5.181c5.166-13.351-.023-28.888-12.8-36.265l-7.472-4.314c-14.123-8.154-32.242-3.297-40.394 10.824l-17.179 29.755h-133.489l-32.939-32.939c-2.287-2.288-5.728-2.971-8.718-1.734-2.989 1.238-4.938 4.155-4.938 7.391v27.283h-39.452v-76.424c0-2.854-1.521-5.492-3.991-6.923-13.07-7.569-28-11.57-43.175-11.57-47.566-.001-86.264 38.698-86.264 86.264v278.09c0 47.566 38.698 86.265 86.264 86.265h349.728c4.418 0 8-3.582 8-8v-43.866h60.008c3.236 0 6.153-1.949 7.391-4.938s.554-6.431-1.734-8.719zm-155.941-155.941 68.265-118.239h6.01v192.514zm-57.388 55.687-20.834 12.029v-24.057zm-35.762-29.885c-.702 1.216-1.072 2.596-1.072 4v51.77c0 2.858 1.525 5.499 4 6.928 1.238.714 2.619 1.072 4 1.072s2.762-.357 4-1.072l44.834-25.885c1.216-.702 2.226-1.712 2.928-2.928l1.369-2.372 48.355 48.355h-132.172v-132.173l34.207 34.207zm48.834 18.957-8.561-4.943 112.104-194.168c4.126 4.243 5.138 10.87 2.036 16.243zm74.601-200.753c3.102-5.373 9.346-7.81 15.085-6.358l-112.104 194.168-8.56-4.942zm-40.273 37.755-39.623 68.628-68.628-68.628zm-327.728-24.652c0-38.744 31.521-70.265 70.264-70.265 10.843 0 21.527 2.504 31.166 7.276v260.628c-9.889-3.825-20.467-5.814-31.166-5.814-28.948 0-54.609 14.33-70.264 36.271zm411.992 348.355h-341.728c-38.743 0-70.264-31.521-70.264-70.265s31.521-70.265 70.264-70.265c12.363 0 24.521 3.256 35.157 9.416 2.476 1.434 5.526 1.437 8.005.008 2.478-1.428 4.004-4.071 4.004-6.931v-185.666h39.451v279.836c0 4.418 3.582 8 8 8h247.111zm-239.111-51.867v-26.259h10.549c4.418 0 8-3.582 8-8s-3.582-8-8-8h-10.549v-19.558h10.549c4.418 0 8-3.582 8-8s-3.582-8-8-8h-10.549v-19.559h10.549c4.418 0 8-3.582 8-8s-3.582-8-8-8h-10.549v-19.559h10.549c4.418 0 8-3.582 8-8s-3.582-8-8-8h-10.549v-19.559h10.549c4.418 0 8-3.582 8-8s-3.582-8-8-8h-10.549v-19.559h10.549c4.418 0 8-3.582 8-8s-3.582-8-8-8h-10.549v-19.558h10.549c4.418 0 8-3.582 8-8s-3.582-8-8-8h-10.549v-40.196l106.943 106.944-16.527 28.625-44.833-44.833c-2.287-2.288-5.728-2.971-8.718-1.734-2.989 1.238-4.938 4.155-4.938 7.391v159.487c0 4.418 3.582 8 8 8h159.487c3.236 0 6.153-1.949 7.391-4.938s.554-6.43-1.734-8.718l-65.043-65.044 16.526-28.625 139.252 139.252z"/></svg>