<svg height="512" viewBox="0 0 60 60" width="512" xmlns="http://www.w3.org/2000/svg"><g id="004---Town-Plan"><path id="Shape" d="m57 14h-17c0-1.27.13-2.21-.72-3.21l-4.92-5.74c-.5792815-.64784152-1.4110317-1.01264426-2.28-1h-3.08c-1.6568542 0-3 1.34314575-3 3v7h-6v-4.05c0-5.5228475-4.4771525-10-10-10s-10 4.4771525-10 10v40c0 5.5228475 4.4771525 10 10 10h47c1.6568542 0 3-1.3431458 3-3v-40c0-1.6568542-1.3431458-3-3-3zm-7 35h-2v-4c0-1.6568542-1.3431458-3-3-3s-3 1.3431458-3 3v4h-2v-19c0-.5522847.4477153-1 1-1h8c.5522847 0 1 .4477153 1 1zm-4 0h-2v-4c0-.5522847.4477153-1 1-1s1 .4477153 1 1zm-17-43h3.08c.2923118-.00001923.5699973.12786225.76.35 5.3 6.19 5.16 5.88 5.16 6.39v36.26h-2v-4c0-1.6568542-1.3431458-3-3-3s-3 1.3431458-3 3v4h-2v-8h4c.5522847 0 1-.4477153 1-1s-.4477153-1-1-1h-4v-2h4c.5522847 0 1-.4477153 1-1s-.4477153-1-1-1h-4v-2h4c.5522847 0 1-.4477153 1-1s-.4477153-1-1-1h-4v-2h4c.5522847 0 1-.4477153 1-1s-.4477153-1-1-1h-4v-2h4c.5522847 0 1-.4477153 1-1s-.4477153-1-1-1h-4v-2h4c.5522847 0 1-.4477153 1-1s-.4477153-1-1-1h-4v-2h4c.5522847 0 1-.4477153 1-1s-.4477153-1-1-1h-4v-2h4c.5522847 0 1-.4477153 1-1s-.4477153-1-1-1h-4v-4c0-.55228475.4477153-1 1-1zm5 43h-2v-4c0-.5522847.4477153-1 1-1s1 .4477153 1 1zm-32-39c0-4.418278 3.581722-8 8-8s8 3.581722 8 8v34c-1.8995372-2.5098321-4.8699125-3.9788345-8.01750028-3.9650638-3.14758781.0137707-6.10499583 1.5087072-7.98249972 4.0350638zm56 47c0 .5522847-.4477153 1-1 1h-47c-4.418278 0-8-3.581722-8-8s3.581722-8 8-8 8 3.581722 8 8c0 .5522847.4477153 1 1 1s1-.4477153 1-1v-34h6v33h-2c-.5522847 0-1 .4477153-1 1s.4477153 1 1 1h30c.5522847 0 1-.4477153 1-1s-.4477153-1-1-1h-2v-19c0-1.6568542-1.3431458-3-3-3-8.62 0-8.28-.07-9 .18v-11.18h17c.5522847 0 1 .4477153 1 1z"/><path id="Shape" d="m43 31h-1c-.5522847 0-1 .4477153-1 1s.4477153 1 1 1h1c.5522847 0 1-.4477153 1-1s-.4477153-1-1-1z"/><path id="Shape" d="m48 31h-1c-.5522847 0-1 .4477153-1 1s.4477153 1 1 1h1c.5522847 0 1-.4477153 1-1s-.4477153-1-1-1z"/><path id="Shape" d="m43 35h-1c-.5522847 0-1 .4477153-1 1s.4477153 1 1 1h1c.5522847 0 1-.4477153 1-1s-.4477153-1-1-1z"/><path id="Shape" d="m48 35h-1c-.5522847 0-1 .4477153-1 1s.4477153 1 1 1h1c.5522847 0 1-.4477153 1-1s-.4477153-1-1-1z"/><path id="Shape" d="m43 39h-1c-.5522847 0-1 .4477153-1 1s.4477153 1 1 1h1c.5522847 0 1-.4477153 1-1s-.4477153-1-1-1z"/><path id="Shape" d="m48 39h-1c-.5522847 0-1 .4477153-1 1s.4477153 1 1 1h1c.5522847 0 1-.4477153 1-1s-.4477153-1-1-1z"/><path id="Shape" d="m31 53h-8c-.5522847 0-1 .4477153-1 1s.4477153 1 1 1h8c.5522847 0 1-.4477153 1-1s-.4477153-1-1-1z"/><path id="Shape" d="m55 53h-20c-.5522847 0-1 .4477153-1 1s.4477153 1 1 1h20c.5522847 0 1-.4477153 1-1s-.4477153-1-1-1z"/><path id="Shape" d="m5 11c.55228475 0 1-.4477153 1-1v-2c0-.55228475-.44771525-1-1-1s-1 .44771525-1 1v2c0 .5522847.44771525 1 1 1z"/><path id="Shape" d="m5 38c.55228475 0 1-.4477153 1-1v-23c0-.5522847-.44771525-1-1-1s-1 .4477153-1 1v23c0 .5522847.44771525 1 1 1z"/></g></svg>