<svg id="Layer_1" enable-background="new 0 0 64 64" height="512" viewBox="0 0 64 64" width="512" xmlns="http://www.w3.org/2000/svg"><g fill="rgb(0,0,0)"><path d="m60.2 16.1h-15v-10.1c0-.6-.4-1-1-1h-25.5c-.6 0-1 .4-1 1v10.1h-13.9c-.6 0-1 .4-1 1v38.7c0 .6.4 1 1 1h11.1c.6 0 1-.4 1-1s-.4-1-1-1h-10.1v-36.7h12.9v39.9c0 .6.4 1 1 1h25.4c.6 0 1-.4 1-1v-39.9h14v36.7h-11.1c-.6 0-1 .4-1 1s.4 1 1 1h12.2c.6 0 1-.4 1-1v-38.7c0-.6-.4-1-1-1zm-32.2 40.9v-6.9h8v6.9zm15.2 0h-5.2v-7.9c0-.6-.4-1-1-1h-10c-.6 0-1 .4-1 1v7.9h-6.3v-50h23.4v50z"/><path d="m12.1 27.1h-3.3c-.6 0-1 .4-1 1s.4 1 1 1h3.3c.6 0 1-.4 1-1s-.5-1-1-1z"/><path d="m12.1 34.9h-3.3c-.6 0-1 .4-1 1s.4 1 1 1h3.3c.6 0 1-.4 1-1s-.5-1-1-1z"/><path d="m12.1 43.7h-3.3c-.6 0-1 .4-1 1s.4 1 1 1h3.3c.6 0 1-.4 1-1s-.5-1-1-1z"/><path d="m26.5 25.8h3.3c.6 0 1-.4 1-1s-.4-1-1-1h-3.3c-.6 0-1 .4-1 1s.4 1 1 1z"/><path d="m26.5 33.6h3.3c.6 0 1-.4 1-1s-.4-1-1-1h-3.3c-.6 0-1 .4-1 1s.4 1 1 1z"/><path d="m26.5 42.4h3.3c.6 0 1-.4 1-1s-.4-1-1-1h-3.3c-.6 0-1 .4-1 1s.4 1 1 1z"/><path d="m34.2 23.8c-.6 0-1 .4-1 1s.4 1 1 1h3.3c.6 0 1-.4 1-1s-.4-1-1-1z"/><path d="m37.5 31.6h-3.3c-.6 0-1 .4-1 1s.4 1 1 1h3.3c.6 0 1-.4 1-1s-.4-1-1-1z"/><path d="m37.5 40.4h-3.3c-.6 0-1 .4-1 1s.4 1 1 1h3.3c.6 0 1-.4 1-1s-.4-1-1-1z"/><path d="m49.7 29.1h3.3c.6 0 1-.4 1-1s-.4-1-1-1h-3.3c-.6 0-1 .4-1 1s.4 1 1 1z"/><path d="m49.7 36.9h3.3c.6 0 1-.4 1-1s-.4-1-1-1h-3.3c-.6 0-1 .4-1 1s.4 1 1 1z"/><path d="m49.7 45.7h3.3c.6 0 1-.4 1-1s-.4-1-1-1h-3.3c-.6 0-1 .4-1 1s.4 1 1 1z"/><path d="m27 16.4h4v4c0 .6.4 1 1 1s1-.4 1-1v-4h4c.6 0 1-.4 1-1s-.4-1-1-1h-4v-4c0-.6-.4-1-1-1s-1 .4-1 1v4h-4c-.6 0-1 .4-1 1s.5 1 1 1z"/></g></svg>