<svg enable-background="new 0 0 64 64" height="512" viewBox="0 0 64 64" width="512" xmlns="http://www.w3.org/2000/svg"><g id="Layer_21"><path d="m60.85 49.64h-3.43v-27.64c0-.41-.34-.75-.75-.75h-10.92v-4.34c0-.36-.25-.66-.6-.73l-16.98-3.29-.03-.01-.109-.02c-.13-.021-.261 0-.38.04l-8.92 3.31c-.29.11-.48.39-.48.7v12.34h-10.751c-.41 0-.75.34-.75.75v19.64h-3.6c-.41 0-.75.341-.75.75 0 .42.34.75.75.75h57.7c.41 0 .75-.33.75-.75 0-.41-.34-.75-.75-.75zm-42.6-17.45h-4.63c-.41 0-.75.34-.75.75 0 .409.34.75.75.75h4.63v3.5h-4.63c-.41 0-.75.34-.75.75 0 .409.34.75.75.75h4.63v3.5h-4.63c-.41 0-.75.34-.75.75 0 .409.34.75.75.75h4.63v3.5h-4.63c-.41 0-.75.34-.75.75 0 .409.34.75.75.75h4.63v.949h-10v-18.889h10zm9.02-15.18-6.909 2.34c-.391.14-.601.56-.471.95.11.32.4.51.71.51.08 0 .17-.01.24-.04l6.43-2.17v6.37l-6.909 2.34c-.391.131-.601.561-.471.95.11.32.4.51.71.51.08 0 .17-.01.24-.039l6.43-2.171v6.36l-6.909 2.35c-.391.13-.601.56-.471.95.11.311.4.511.71.511.08 0 .17-.021.24-.04l6.43-2.181v6.37l-6.909 2.34c-.391.141-.601.561-.471.95.11.32.4.51.71.51.08 0 .17-.01.24-.04l6.43-2.17v7.17h-7.52v-32.2l7.52-2.801zm16.98 32.63h-15.48v-7.17l12.391 2.04c.399.061.79-.21.859-.62.07-.409-.21-.8-.619-.859l-12.631-2.081v-6.44l12.391 2.04c.399.07.79-.21.859-.62.07-.41-.21-.79-.619-.859l-12.631-2.081v-6.43l12.39 2.04c.399.061.79-.21.859-.619.07-.41-.21-.801-.619-.86l-12.63-2.081v-6.44l12.391 2.04c.399.07.79-.21.859-.62.07-.409-.21-.789-.619-.859l-12.631-2.081v-2.55l15.48 3zm1.5-1.95h5.19c.409 0 .75-.341.75-.75 0-.41-.341-.75-.75-.75h-5.19v-2.5h5.19c.409 0 .75-.341.75-.75 0-.41-.341-.75-.75-.75h-5.19v-2.5h5.19c.409 0 .75-.341.75-.75 0-.41-.341-.75-.75-.75h-5.19v-2.5h5.19c.409 0 .75-.341.75-.75 0-.41-.341-.75-.75-.75h-5.19v-2.5h5.19c.409 0 .75-.341.75-.75 0-.41-.341-.75-.75-.75h-5.19v-2.5h5.19c.409 0 .75-.341.75-.75 0-.41-.341-.75-.75-.75h-5.19v-3.44h10.17v26.89h-10.17z"/></g></svg>