<?xml version="1.0" encoding="UTF-8"?>
<svg xmlns="http://www.w3.org/2000/svg" id="Layer_3" data-name="Layer 3" viewBox="0 0 64 64" width="512" height="512"><path d="M62.707,13.292A1,1,0,0,0,62,13H38.414l6.672-6.672a3.121,3.121,0,0,0-4.414-4.414L29.586,13H9V12a1,1,0,0,0-1-1H6a5.006,5.006,0,0,0-5,5V58a5.006,5.006,0,0,0,5,5H62a1,1,0,0,0,1-1V14A1,1,0,0,0,62.707,13.292Zm-35.433,5.4,1.038,1.038-2.076,1.038Zm2.726-.1L28.415,17,39.5,5.914,41.086,7.5ZM42.879,3a1.121,1.121,0,0,1,.793,1.914L42.5,6.086,40.914,4.5l1.172-1.172A1.129,1.129,0,0,1,42.879,3ZM3,16a3,3,0,0,1,3-3H7V53H6a4.973,4.973,0,0,0-3,1ZM61,61H6a3,3,0,0,1,0-6H8a1,1,0,0,0,1-1V15H27.586l-1.293,1.293a1,1,0,0,0-.188.26l-3,6A1,1,0,0,0,24.447,23.9l6-3a1,1,0,0,0,.26-.188L36.414,15H61Z"/><path d="M33,19a1,1,0,0,0-1,1v7h2V25h3a1,1,0,0,0,1-1V21H50v3a1,1,0,0,0,1,1h3V35H51a1,1,0,0,0-1,1v3H42v2H54V51H51a1,1,0,0,0-1,1v3H38V52a1,1,0,0,0-1-1H34V41h3a1,1,0,0,0,1-1V36a1,1,0,0,0-1-1H33a1,1,0,0,0-1,1v3H28V32h6V30H16V25h3a1,1,0,0,0,1-1V21h3V19H15a1,1,0,0,0-1,1V40a1,1,0,0,0,1,1H32V56a1,1,0,0,0,1,1H55a1,1,0,0,0,1-1V20a1,1,0,0,0-1-1H33Zm3,4H34V21h2ZM16,21h2v2H16Zm2,18H16V37h2Zm-2-4V32H26v7H20V36a1,1,0,0,0-1-1Zm18,2h2v2H34Zm2,18H34V53h2ZM52,37h2v2H52Zm2,18H52V53h2ZM52,21h2v2H52Z"/><path d="M28,43H17a1,1,0,0,0-1,1V56a1,1,0,0,0,1,1H28a1,1,0,0,0,1-1V44A1,1,0,0,0,28,43ZM27,55H18V45h9Z"/><path d="M22,52h1a3,3,0,0,0,0-6H21a1,1,0,0,0-1,1v7h2Zm0-4h1a1,1,0,0,1,0,2H22Z"/></svg>
