<svg id="Layer_2" height="512" viewBox="0 0 60 60" width="512" xmlns="http://www.w3.org/2000/svg"><path d="m7 31.72c.13 0 .25-.02.38-.07l1.62-.67v18.52c0 .55.45 1 1 1h18 7 8 7c.55 0 1-.45 1-1v-28.68l1.74.47c.09.02.18.04.26.04.44 0 .84-.29.96-.74.15-.53-.17-1.08-.7-1.23l-2.93-.8c-.02-.01-.04-.02-.07-.03l-3.26-.88v-7.15c0-.55-.45-1-1-1h-4c-.55 0-1 .45-1 1v5.51l-12.74-3.47c-.02-.01-.05 0-.07 0l-2.93-.8c-.53-.14-1.08.17-1.23.7s.17 1.08.7 1.23l2.27.61v8.5l-17.32 5.77c-.01 0-.02.01-.03.02-.01 0-.02 0-.03.01l-3 1.22c-.51.21-.76.79-.55 1.3.16.38.54.62.93.62zm15 8.78h-6v-2h6zm-6 2h6v2h-6zm6-6h-6v-2h6zm-6 10h6v2h-6zm20 2v-8c0-1.65 1.35-3 3-3s3 1.35 3 3v8zm7-37h2v5.6l-2-.55zm6 8.78v28.22h-5v-8c0-2.76-2.24-5-5-5s-5 2.24-5 5v8h-5v-25-8.67zm-22 28.22h-3v-15c0-.55-.45-1-1-1h-8c-.55 0-1 .45-1 1v15h-3v-18.28l16-5.33z"/><path d="m39 29.5c2.21 0 4-1.79 4-4s-1.79-4-4-4-4 1.79-4 4 1.79 4 4 4zm0-6c1.1 0 2 .9 2 2s-.9 2-2 2-2-.9-2-2 .9-2 2-2z"/></svg>